<?xml version="1.0" encoding="UTF-8" standalone="no"?>
<!-- Created with Inkscape (http://www.inkscape.org/) -->

<svg
   xmlns:dc="http://purl.org/dc/elements/1.1/"
   xmlns:cc="http://creativecommons.org/ns#"
   xmlns:rdf="http://www.w3.org/1999/02/22-rdf-syntax-ns#"
   xmlns:svg="http://www.w3.org/2000/svg"
   xmlns="http://www.w3.org/2000/svg"
   version="1.1"
   width="300"
   height="84.818054"
   id="svg6490">
  <defs
     id="defs6492">
    <clipPath
       id="clipPath316">
      <path
         d="m 235.578,246.457 -69.534,0 0,-19.659 69.534,0 L 235.578,246.457 Z"
         id="path318" />
    </clipPath>
  </defs>
  <metadata
     id="metadata6495">
    <rdf:RDF>
      <cc:Work
         rdf:about="">
        <dc:format>image/svg+xml</dc:format>
        <dc:type
           rdf:resource="http://purl.org/dc/dcmitype/StillImage" />
        <cc:license
           rdf:resource="" />
        <dc:title></dc:title>
      </cc:Work>
    </rdf:RDF>
  </metadata>
  <g
     transform="translate(-347.97009,-319.83099)"
     id="layer1">
    <g
       transform="matrix(3.4515714,0,0,3.4515714,-853.07359,-992.02608)"
       id="g6531">
      <g
         transform="matrix(1.25,0,0,-1.25,367.40011,391.63781)"
         id="g296">
        <path
           d="m 0,0 c -0.069,-1.514 -1.127,-3.588 -3.172,-6.22 -2.114,-2.749 -3.903,-4.124 -5.367,-4.124 -0.906,0 -1.673,0.837 -2.3,2.512 -0.418,1.535 -0.837,3.069 -1.255,4.604 -0.465,1.674 -0.964,2.512 -1.498,2.512 -0.116,0 -0.524,-0.245 -1.221,-0.733 l -0.731,0.943 c 0.767,0.674 1.524,1.349 2.269,2.025 1.024,0.884 1.792,1.35 2.305,1.397 1.21,0.116 1.955,-0.712 2.235,-2.483 0.302,-1.912 0.511,-3.101 0.628,-3.566 0.349,-1.586 0.733,-2.378 1.152,-2.378 0.326,0 0.815,0.515 1.467,1.543 0.651,1.029 1,1.812 1.047,2.349 0.093,0.888 -0.256,1.333 -1.047,1.333 -0.373,0 -0.757,-0.085 -1.151,-0.255 0.764,2.504 2.224,3.721 4.38,3.652 C -0.661,3.064 0.092,2.027 0,0"
           id="path298"
           style="fill:#1ab7ea;fill-opacity:1;fill-rule:nonzero;stroke:none" />
      </g>
      <g
         transform="matrix(1.25,0,0,-1.25,375.60136,382.24656)"
         id="g300">
        <path
           d="m 0,0 c -0.023,-0.58 -0.314,-1.136 -0.874,-1.669 -0.628,-0.602 -1.373,-0.903 -2.234,-0.903 -1.327,0 -1.968,0.579 -1.921,1.737 0.022,0.602 0.378,1.182 1.064,1.738 0.687,0.555 1.449,0.834 2.288,0.834 0.489,0 0.896,-0.192 1.223,-0.574 C -0.129,0.781 0.023,0.393 0,0 z m 3.038,-12.419 c -0.652,-1.232 -1.548,-2.349 -2.689,-3.349 -1.56,-1.349 -3.119,-2.024 -4.679,-2.024 -0.723,0 -1.275,0.233 -1.659,0.699 -0.384,0.465 -0.565,1.069 -0.541,1.814 0.022,0.767 0.261,1.954 0.715,3.56 0.454,1.605 0.682,2.466 0.682,2.582 0,0.605 -0.21,0.908 -0.629,0.908 -0.139,0 -0.536,-0.245 -1.188,-0.733 l -0.803,0.943 c 0.745,0.674 1.49,1.349 2.235,2.025 1.001,0.884 1.746,1.35 2.236,1.397 0.768,0.069 1.332,-0.157 1.693,-0.679 0.36,-0.523 0.494,-1.2 0.402,-2.035 -0.303,-1.415 -0.629,-3.212 -0.978,-5.392 -0.024,-0.998 0.337,-1.496 1.082,-1.496 0.326,0 0.908,0.344 1.746,1.033 0.699,0.574 1.269,1.114 1.712,1.62 l 0.663,-0.873"
           id="path302"
           style="fill:#1ab7ea;fill-opacity:1;fill-rule:nonzero;stroke:none" />
      </g>
      <g
         transform="matrix(1.25,0,0,-1.25,406.65886,397.76906)"
         id="g304">
        <path
           d="m 0,0 c -0.652,-1.233 -1.548,-2.349 -2.689,-3.349 -1.56,-1.349 -3.12,-2.024 -4.679,-2.024 -1.514,0 -2.247,0.837 -2.2,2.513 0.022,0.745 0.168,1.639 0.436,2.686 0.267,1.048 0.413,1.862 0.436,2.444 0.024,0.883 -0.245,1.326 -0.806,1.326 -0.607,0 -1.331,-0.722 -2.172,-2.165 -0.887,-1.514 -1.367,-2.98 -1.436,-4.4 -0.047,-1.002 0.051,-1.77 0.293,-2.305 -1.624,-0.047 -2.762,0.221 -3.411,0.803 -0.582,0.512 -0.848,1.361 -0.801,2.549 0.022,0.745 0.136,1.49 0.343,2.235 0.205,0.745 0.319,1.408 0.342,1.991 0.047,0.861 -0.268,1.292 -0.944,1.292 -0.583,0 -1.213,-0.664 -1.888,-1.991 -0.676,-1.326 -1.049,-2.712 -1.119,-4.155 -0.047,-1.305 0.037,-2.212 0.25,-2.724 -1.598,-0.047 -2.733,0.29 -3.404,1.01 -0.558,0.603 -0.812,1.52 -0.765,2.751 0.023,0.603 0.129,1.445 0.321,2.524 0.192,1.08 0.299,1.921 0.321,2.525 0.046,0.417 -0.059,0.627 -0.314,0.627 -0.14,0 -0.536,-0.236 -1.188,-0.707 l -0.838,0.943 c 0.117,0.092 0.849,0.768 2.2,2.025 0.978,0.907 1.641,1.373 1.99,1.396 0.606,0.047 1.094,-0.203 1.467,-0.75 0.372,-0.547 0.559,-1.182 0.559,-1.903 0,-0.233 -0.023,-0.454 -0.069,-0.664 0.349,0.535 0.756,1.002 1.222,1.398 1.071,0.93 2.27,1.455 3.597,1.571 1.141,0.093 1.955,-0.174 2.445,-0.803 0.395,-0.512 0.581,-1.246 0.558,-2.2 0.163,0.139 0.338,0.291 0.525,0.454 0.534,0.628 1.058,1.128 1.57,1.501 0.861,0.629 1.759,0.978 2.689,1.048 1.118,0.093 1.921,-0.173 2.41,-0.8 0.418,-0.51 0.605,-1.241 0.559,-2.191 -0.024,-0.65 -0.181,-1.595 -0.472,-2.836 -0.292,-1.241 -0.436,-1.953 -0.436,-2.139 -0.024,-0.488 0.023,-0.824 0.139,-1.009 0.117,-0.186 0.395,-0.278 0.838,-0.278 0.326,0 0.907,0.344 1.746,1.034 0.698,0.573 1.269,1.113 1.712,1.619 L 0,0"
           id="path306"
           style="fill:#1ab7ea;fill-opacity:1;fill-rule:nonzero;stroke:none" />
      </g>
      <g
         transform="matrix(1.25,0,0,-1.25,413.11886,393.16656)"
         id="g308">
        <path
           d="m 0,0 c 0.022,0.625 -0.233,0.938 -0.767,0.938 -0.698,0 -1.407,-0.481 -2.127,-1.442 -0.721,-0.961 -1.093,-1.882 -1.116,-2.762 -0.013,0 -0.013,-0.151 0,-0.452 1.139,0.417 2.127,1.053 2.964,1.911 C -0.372,-1.066 -0.024,-0.463 0,0 Z M 7.927,-3.646 C 7.252,-4.763 5.925,-5.878 3.946,-6.994 1.479,-8.412 -1.025,-9.12 -3.562,-9.12 c -1.885,0 -3.237,0.628 -4.051,1.885 -0.582,0.861 -0.861,1.885 -0.838,3.072 0.023,1.885 0.862,3.677 2.515,5.377 1.815,1.862 3.957,2.794 6.425,2.794 2.282,0 3.492,-0.93 3.632,-2.787 C 4.214,0.037 3.562,-1.183 2.165,-2.437 0.675,-3.808 -1.2,-4.678 -3.457,-5.049 c 0.418,-0.581 1.046,-0.871 1.885,-0.871 1.676,0 3.504,0.426 5.483,1.279 1.42,0.599 2.538,1.221 3.353,1.866 l 0.663,-0.871"
           id="path310"
           style="fill:#1ab7ea;fill-opacity:1;fill-rule:nonzero;stroke:none" />
      </g>
      <g
         transform="matrix(1.25,0,0,-1.25,140.41511,688.14656)"
         id="g312">
        <g
           clip-path="url(#clipPath316)"
           id="g314">
          <g
             transform="translate(231.623,234.81)"
             id="g320">
            <path
               d="M 0,0 C 0.023,0.63 -0.064,1.207 -0.262,1.732 -0.46,2.256 -0.746,2.52 -1.117,2.52 c -1.188,0 -2.166,-0.642 -2.933,-1.925 -0.653,-1.05 -1.003,-2.17 -1.048,-3.358 -0.024,-0.584 0.081,-1.098 0.314,-1.54 0.255,-0.514 0.616,-0.77 1.083,-0.77 1.047,0 1.944,0.617 2.689,1.854 C -0.384,-2.192 -0.047,-1.119 0,0 Z M 3.946,-0.132 C 3.853,-2.271 3.062,-4.119 1.572,-5.676 0.082,-7.233 -1.77,-8.012 -3.981,-8.012 c -1.839,0 -3.236,0.593 -4.19,1.779 -0.698,0.883 -1.083,1.987 -1.152,3.311 -0.118,2 0.604,3.836 2.165,5.51 1.676,1.859 3.782,2.789 6.32,2.789 1.629,0 2.863,-0.547 3.702,-1.639 0.792,-1 1.152,-2.29 1.082,-3.87"
               id="path322"
               style="fill:#1ab7ea;fill-opacity:1;fill-rule:nonzero;stroke:none" />
          </g>
        </g>
      </g>
    </g>
  </g>
</svg>
